# AST/ASF file generated using VICON BodyLanguage
# -----------------------------------------------
:version 1.10
:name VICON
:units
  mass 1.0
  length 0.45
  angle deg
:documentation
   .ast/.asf automatically generated from VICON data using
   VICON BodyBuilder and BodyLanguage model FoxedUp or BRILLIANT.MOD
:root
   order TX TY TZ RX RY RZ
   axis XYZ
   position 0 0 0  
   orientation 0 0 0 
:bonedata
  begin
     id 1 
     name lhipjoint
     direction 0.584852 -0.759097 0.285867 
     length 2.43633 
     axis 0 0 0  XYZ
  end
  begin
     id 2 
     name lfemur
     direction 0.34202 -0.939693 0  
     length 7.14704  
     axis 0 0 20  XYZ
    dof rx ry rz
    limits (-160.0 20.0)
           (-70.0 70.0)
           (-60.0 70.0)
  end
  begin
     id 3 
     name ltibia
     direction 0.342022 -0.939692 0   
     length 7.68483   
     axis 0 0 20   XYZ
    dof rx
    limits (-10.0 170.0)
  end
  begin
     id 4 
     name lfoot
     direction 0.0999605 -0.274639 0.956337   
     length 2.40452   
     axis -90 7.62852e-016 20   XYZ
    dof rx rz
    limits (-45.0 90.0)
           (-70.0 20.0)
  end
  begin
     id 5 
     name ltoes
     direction 1.53468e-011 -4.21881e-011 1   
     length 1.19837   
     axis -90 7.62852e-016 20   XYZ
    dof rx
    limits (-90.0 20.0)
  end
  begin
     id 6 
     name rhipjoint
     direction -0.569886 -0.769002 0.289597   
     length 2.40495  
     axis 0 0 0  XYZ 
  end
  begin
     id 7 
     name rfemur
     direction -0.34202 -0.939693 0   
     length 7.45086   
     axis 0 0 -20   XYZ
    dof rx ry rz
    limits (-160.0 20.0)
           (-70.0 70.0)
           (-70.0 60.0)
  end
  begin
     id 8 
     name rtibia
     direction -0.34202 -0.939693 0   
     length 7.76831   
     axis 0 0 -20   XYZ
    dof rx
    limits (-10.0 170.0)
 end
 begin
     id 9 
     name rfoot
     direction -0.0798572 -0.219406 0.97236   
     length 2.35911  
     axis -90 -7.62852e-016 -20   XYZ
    dof rx rz
    limits (-45.0 90.0)
           (-20.0 70.0)
  end
  begin
     id 10 
     name rtoes
     direction -1.53469e-011 -4.21728e-011 1   
     length 1.18261   
     axis -90 -7.62852e-016 -20   XYZ
    dof rx
    limits (-90.0 20.0)
  end
  begin
     id 11 
     name lowerback
     direction 0.0242088 0.999437 0.0232389   
     length 2.1561   
     axis 0 0 0   XYZ
    dof rx ry rz
    limits (-20.0 45.0)
           (-30.0 30.0)
           (-30.0 30.0)
  end
  begin
     id 12 
     name upperback
     direction -0.0356893 0.999013 -0.0264323   
     length 2.14431   
     axis 0 0 0   XYZ
    dof rx ry rz
    limits (-20.0 45.0)
           (-30.0 30.0)
           (-30.0 30.0)
  end
  begin
     id 13 
     name thorax
     direction -0.0472163 0.998194 -0.0371284   
     length 2.16169   
     axis 0 0 0   XYZ
    dof rx ry rz
    limits (-20.0 45.0)
           (-30.0 30.0)
           (-30.0 30.0)
  end
  begin
     id 14 
     name lowerneck
     direction 0.00863244 0.999921 0.00911972   
     length 1.58651   
     axis 0 0 0   XYZ
    dof rx ry rz
    limits (-20.0 45.0)
           (-30.0 30.0)
           (-30.0 30.0)
  end
  begin
     id 15 
     name upperneck
     direction 0.149523 0.979068 -0.138086   
     length 1.57486   
     axis 0 0 0   XYZ
    dof rx ry rz
    limits (-20.0 45.0)
           (-30.0 30.0)
           (-30.0 30.0)
  end
  begin
     id 16
     name head
     direction 0.0445219 0.997708 -0.0509576  
     length 1.6019  
     axis 0 0 0   XYZ
    dof rx ry rz
    limits (-20.0 45.0)
           (-30.0 30.0)
           (-30.0 30.0)
  end
  begin
     id 17 
     name lclavicle
     direction 0.911271 0.381667 -0.154644  
     length 3.80848  
     axis 0 0 0   XYZ
    dof ry rz
    limits (-20.0 10.0)
           (0.0 20.0)
  end
  begin
     id 18 
     name lhumerus
     direction 1 -4.49003e-011 2.1308e-027   
     length 5.19069   
     axis 180 -30 -90   XYZ
    dof rx ry rz
    limits (-60.0 90.0)
           (-90.0 90.0)
           (-90.0 90.0)
  end
  begin
     id 19
     name lradius
     direction 1 -4.48914e-011 4.01554e-027   
     length 3.30016   
     axis 180 -30 -90   XYZ
    dof rx
    limits (-10.0 170.0)
  end
  begin
     id 20
     name lwrist
     direction 1 -4.49003e-011 1.1934e-026   
     length 1.65008   
     axis -8.46377e-015 90 90   XYZ
    dof ry
    limits (-180.0 0.0)
 end
  begin
     id 21 
     name lhand
     direction 1 -4.49034e-011 2.38659e-026   
     length 0.707698   
     axis -1.52313e-014 90 90   XYZ
    dof rx rz
    limits (-90.0 90.0)
           (-45.0 45.0)
  end
  begin
     id 22 
     name lfingers
     direction 1 -4.48691e-011 4.77775e-026   
     length 0.570564   
     axis -3.04623e-014 90 90   XYZ
    dof rx
    limits (0.0 90.0)
  end
  begin
     id 23
     name lthumb
     direction 0.707107 -6.34832e-011 0.707107   
     length 0.819219   
     axis -90 45 -1.62303e-014   XYZ
    dof rx rz
    limits (-45.0 45.0)
           (-45.0 45.0)
  end
  begin
     id 24 
     name rclavicle
     direction -0.815579 0.573708 -0.0754329   
     length 3.54371  
     axis 0 0 0   XYZ 
    dof ry rz
    limits (-10.0 20.0)
           (-20.0 0.0)
  end
  begin
     id 25 
     name rhumerus
     direction -1 -4.48956e-011 3.05351e-028  
     length 5.23924   
     axis 180 30 90   XYZ
    dof rx ry rz
    limits (-90.0 60.0)
           (-90.0 90.0)
           (-90.0 90.0)
  end
  begin
     id 26 
     name rradius
     direction -1 -4.49013e-011 3.53849e-027   
     length 3.32953   
     axis 180 30 90   XYZ
    dof rx
    limits (-10.0 170.0)
  end
  begin
     id 27 
     name rwrist
     direction -1 -4.48901e-011 1.19374e-026   
     length 1.66477   
     axis -8.46377e-015 -90 -90   XYZ
    dof ry
    limits (-180.0 0.0)
  end
  begin
     id 28
     name rhand
     direction -1 -4.48877e-011 2.38764e-026   
     length 0.607414   
     axis -1.52313e-014 -90 -90   XYZ
    dof rx rz
    limits (-90.0 90.0)
           (-45.0 45.0)
  end
  begin
     id 29
     name rfingers
     direction -1 -4.48882e-011 4.77521e-026   
     length 0.489712   
     axis -3.04623e-014 -90 -90   XYZ
    dof rx
    limits (0.0 90.0)
  end
  begin
     id 30
     name rthumb
     direction -0.707107 -6.34974e-011 0.707107   
     length 0.703132   
     axis -90 -45 1.62303e-014   XYZ
    dof rx rz
    limits (-45.0 45.0)
           (-45.0 45.0)
  end
:hierarchy
  begin
    root lhipjoint rhipjoint lowerback
    lhipjoint lfemur
    lfemur ltibia
    ltibia lfoot
    lfoot ltoes
    rhipjoint rfemur
    rfemur rtibia
    rtibia rfoot
    rfoot rtoes
    lowerback upperback
    upperback thorax
    thorax lowerneck lclavicle rclavicle
    lowerneck upperneck
    upperneck head
    lclavicle lhumerus
    lhumerus lradius
    lradius lwrist
    lwrist lhand lthumb
    lhand lfingers
    rclavicle rhumerus
    rhumerus rradius
    rradius rwrist
    rwrist rhand rthumb
    rhand rfingers
  end

#!OML:ASF E:\VariousWalksJay\Project 1\Capture day 1\Session 1\Actor2.ASF
:FULLY-SPECIFIED
:DEGREES
376
root 16.319 13.9581 -3.20616 6.86845 -45.2761 3.80638
lowerback 45.6496 -2.23778 0.63513
upperback 18.7559 -4.00332 -3.02796
thorax -0.199689 -2.21149 -2.07638
lowerneck 1.43153 1.8229 3.4345
upperneck -25.2522 2.32607 -1.23709
head -7.95915 0.735351 -1.14033
rclavicle -7.95139e-015 1.07741e-013
rhumerus 10.4077 28.2488 -60.205
rradius 114.792
rwrist -4.39427
rhand -32.2506 -13.9891
rfingers 7.12502
rthumb -5.49069 -43.898
lclavicle -7.95139e-015 1.07741e-013
lhumerus 69.5932 3.62003 34.9703
lradius 72.5922
lwrist 56.1131
lhand -31.8381 13.4833
lfingers 7.12502
lthumb -5.09239 43.4021
rfemur -93.9478 3.45822 15.4154
rtibia 75.2038
rfoot -21.7826 -12.6557
rtoes -28.2044
lfemur -61.774 13.4687 -40.9142
ltibia 81.2571
lfoot -31.4727 6.2745
ltoes -6.03057
377
root 16.2876 13.9088 -3.1391 6.44652 -45.3384 3.88367
lowerback 45.7301 -2.13006 0.616447
upperback 18.8668 -3.8976 -3.00595
thorax -0.0861454 -2.16731 -2.08594
lowerneck 1.55291 1.76321 3.48167
upperneck -25.2648 2.24969 -1.24791
head -7.98645 0.695502 -1.14823
rclavicle -3.33958e-014 1.29608e-013
rhumerus 10.7637 28.0859 -59.6867
rradius 114.628
rwrist -4.50743
rhand -32.2454 -14.0981
rfingers 7.12502
rthumb -5.48563 -44.0071
lclavicle -3.33958e-014 1.29608e-013
lhumerus 69.7827 3.72186 35.046
lradius 72.3789
lwrist 56.219
lhand -31.8535 13.4381
lfingers 7.12502
lthumb -5.10724 43.3566
rfemur -93.258 3.86463 15.5
rtibia 71.7827
rfoot -21.9009 -12.5794
rtoes -28.4125
lfemur -61.3631 12.9456 -40.7839
ltibia 81.939
lfoot -31.8293 6.97854
ltoes -6.08096
378
root 16.2549 13.8597 -3.07024 6.0628 -45.4112 3.91683
lowerback 45.7655 -2.04117 0.619522
upperback 18.9765 -3.80585 -2.99385
thorax 0.0342602 -2.12801 -2.11269
lowerneck 1.67768 1.7118 3.51253
upperneck -25.2581 2.18584 -1.25103
head -8.00784 0.663166 -1.15148
rclavicle -2.70347e-014 -1.61016e-014
rhumerus 11.0616 27.9739 -59.2426
rradius 114.447
rwrist -4.56784
rhand -32.2522 -14.1737
rfingers 7.12502
rthumb -5.49224 -44.0826
lclavicle -2.70347e-014 -1.61016e-014
lhumerus 69.8997 3.81253 35.0751
lradius 72.1736
lwrist 56.3033
lhand -31.8386 13.3897
lfingers 7.12502
lthumb -5.09287 43.3085
rfemur -92.4833 4.24196 15.6874
rtibia 68.3783
rfoot -22.0072 -12.3635
rtoes -28.766
lfemur -60.9664 12.4605 -40.6374
ltibia 82.6392
lfoot -32.2117 7.63259
ltoes -6.33972
379
root 16.2206 13.8111 -2.99995 5.70989 -45.4888 3.91448
lowerback 45.762 -1.97408 0.640275
upperback 19.0832 -3.73302 -2.99562
thorax 0.157814 -2.09575 -2.15672
lowerneck 1.80444 1.67078 3.53258
upperneck -25.2317 2.13744 -1.2488
head -8.02276 0.639455 -1.15199
rclavicle 3.97569e-014 8.48811e-014
rhumerus 11.3021 27.9132 -58.8828
rradius 114.264
rwrist -4.6105
rhand -32.2544 -14.2241
rfingers 7.12502
rthumb -5.49436 -44.1329
lclavicle 3.97569e-014 8.48811e-014
lhumerus 69.943 3.8924 35.0455
lradius 71.9818
lwrist 56.3623
lhand -31.788 13.3478
lfingers 7.12502
lthumb -5.044 43.2677
rfemur -91.6407 4.58661 15.9678
rtibia 65.0387
rfoot -22.1074 -12.0183
rtoes -29.217
lfemur -60.5868 12.0271 -40.482
ltibia 83.363
lfoot -32.6066 8.21274
ltoes -6.75377
380
root 16.1845 13.7629 -2.92849 5.37986 -45.5577 3.88868
lowerback 45.7202 -1.9339 0.678122
upperback 19.1869 -3.68469 -3.01126
thorax 0.284225 -2.07303 -2.21572
lowerneck 1.93117 1.64043 3.53799
upperneck -25.1844 2.10496 -1.23872
head -8.03044 0.624742 -1.14832
rclavicle -2.3059e-014 1.2921e-014
rhumerus 11.4835 27.8998 -58.6083
rradius 114.091
rwrist -4.66031
rhand -32.2403 -14.2592
rfingers 7.12502
rthumb -5.48077 -44.1684
lclavicle -2.3059e-014 1.2921e-014
lhumerus 69.9174 3.96069 34.9579
lradius 71.8053
lwrist 56.3905
lhand -31.7098 13.3184
lfingers 7.12502
lthumb -4.96857 43.2402
rfemur -90.7499 4.88511 16.33
rtibia 61.8127
rfoot -22.196 -11.5717
rtoes -29.7321
lfemur -60.2196 11.6425 -40.3285
ltibia 84.1086
lfoot -32.9962 8.72826
ltoes -7.31575
381
root 16.1458 13.7144 -2.85609 5.07409 -45.6127 3.83361
lowerback 45.6474 -1.92347 0.734145
upperback 19.2873 -3.66396 -3.04373
thorax 0.410936 -2.061 -2.29213
lowerneck 2.05567 1.62389 3.53245
upperneck -25.1162 2.09398 -1.21717
head -8.0304 0.621016 -1.14029
rclavicle -1.43125e-014 -6.04305e-014
rhumerus 11.6064 27.9376 -58.4285
rradius 113.94
rwrist -4.73345
rhand -32.2175 -14.2826
rfingers 7.12502
rthumb -5.45876 -44.1923
lclavicle -1.43125e-014 -6.04305e-014
lhumerus 69.8242 4.02421 34.7962
lradius 71.6469
lwrist 56.397
lhand -31.599 13.31
lfingers 7.12502
lthumb -4.86151 43.2342
rfemur -89.8316 5.13636 16.7754
rtibia 58.7499
rfoot -22.2729 -11.0479
rtoes -30.2854
lfemur -59.8697 11.3369 -40.1785
ltibia 84.8819
lfoot -33.3697 9.15769
ltoes -7.97065
382
root 16.1044 13.6663 -2.78345 4.77208 -45.648 3.77302
lowerback 45.5489 -1.93749 0.794491
upperback 19.3849 -3.6698 -3.09238
thorax 0.537952 -2.06001 -2.37871
lowerneck 2.18077 1.61982 3.51237
upperneck -25.0298 2.1036 -1.17848
head -8.02419 0.627566 -1.12544
rclavicle 2.46493e-014 1.5704e-014
rhumerus 11.665 28.0201 -58.3419
rradius 113.816
rwrist -4.83019
rhand -32.1945 -14.2947
rfingers 7.12502
rthumb -5.43652 -44.205
lclavicle 2.46493e-014 1.5704e-014
lhumerus 69.6727 4.07544 34.5648
lradius 71.5105
lwrist 56.3932
lhand -31.467 13.3208
lfingers 7.12502
lthumb -4.73408 43.2479
rfemur -88.8975 5.34475 17.2586
rtibia 55.8889
rfoot -22.3417 -10.4935
rtoes -30.7477
lfemur -59.5231 11.1054 -40.0461
ltibia 85.6729
lfoot -33.7159 9.51979
ltoes -8.70869
